<mxfile host="app.diagrams.net" modified="2022-01-23T00:14:20.597Z" agent="5.0 (Windows NT 10.0; Win64; x64) AppleWebKit/537.36 (KHTML, like Gecko) Chrome/97.0.4692.71 Safari/537.36" etag="yZj3N5BGOZTNmDAEUeQr" version="16.4.5" type="github">
  <diagram id="Ni9uWXQ8qNGRNFq54FH3" name="Page-1">
    <mxGraphModel dx="1422" dy="705" grid="1" gridSize="10" guides="1" tooltips="1" connect="1" arrows="1" fold="1" page="1" pageScale="1" pageWidth="827" pageHeight="1169" math="0" shadow="0">
      <root>
        <mxCell id="0" />
        <mxCell id="1" parent="0" />
        <mxCell id="k1NI9f-fPOs62LW1hEcz-2" value="m:[regex]" style="text;html=1;resizable=0;autosize=1;align=center;verticalAlign=middle;points=[];fillColor=none;strokeColor=none;rounded=0;fontStyle=1" parent="1" vertex="1">
          <mxGeometry x="310" y="220" width="70" height="20" as="geometry" />
        </mxCell>
        <mxCell id="k1NI9f-fPOs62LW1hEcz-3" value="m!:[regex]" style="text;html=1;resizable=0;autosize=1;align=center;verticalAlign=middle;points=[];fillColor=none;strokeColor=none;rounded=0;fontStyle=1" parent="1" vertex="1">
          <mxGeometry x="110" y="220" width="70" height="20" as="geometry" />
        </mxCell>
        <mxCell id="k1NI9f-fPOs62LW1hEcz-4" value="f!:[regex]" style="text;html=1;resizable=0;autosize=1;align=center;verticalAlign=middle;points=[];fillColor=none;strokeColor=none;rounded=0;fontStyle=1" parent="1" vertex="1">
          <mxGeometry x="210" y="220" width="70" height="20" as="geometry" />
        </mxCell>
        <mxCell id="k1NI9f-fPOs62LW1hEcz-5" value="f:[regex]" style="text;html=1;resizable=0;autosize=1;align=center;verticalAlign=middle;points=[];fillColor=none;strokeColor=none;rounded=0;fontStyle=1" parent="1" vertex="1">
          <mxGeometry x="414" y="220" width="60" height="20" as="geometry" />
        </mxCell>
        <mxCell id="ayB_Okzq8b2QyfFvcD44-2" value="&amp;gt;" style="text;html=1;resizable=0;autosize=1;align=center;verticalAlign=middle;points=[];fillColor=none;strokeColor=none;rounded=0;labelBorderColor=none;fontSize=30;" vertex="1" parent="1">
          <mxGeometry x="180" y="210" width="30" height="40" as="geometry" />
        </mxCell>
        <mxCell id="ayB_Okzq8b2QyfFvcD44-3" value="&amp;gt;" style="text;html=1;resizable=0;autosize=1;align=center;verticalAlign=middle;points=[];fillColor=none;strokeColor=none;rounded=0;labelBorderColor=none;fontSize=30;" vertex="1" parent="1">
          <mxGeometry x="280" y="210" width="30" height="40" as="geometry" />
        </mxCell>
        <mxCell id="ayB_Okzq8b2QyfFvcD44-4" value="&amp;gt;" style="text;html=1;resizable=0;autosize=1;align=center;verticalAlign=middle;points=[];fillColor=none;strokeColor=none;rounded=0;labelBorderColor=none;fontSize=30;" vertex="1" parent="1">
          <mxGeometry x="380" y="210" width="30" height="40" as="geometry" />
        </mxCell>
      </root>
    </mxGraphModel>
  </diagram>
</mxfile>
